<?xml version="1.0" encoding="UTF-8" standalone="no"?>
<!DOCTYPE svg PUBLIC "-//W3C//DTD SVG 1.1//EN"
 "http://www.w3.org/Graphics/SVG/1.1/DTD/svg11.dtd">
<!-- Generated by graphviz version 2.43.0 (0)
 -->
<!-- Title: %3 Pages: 1 -->
<svg width="1728pt" height="485pt"
 viewBox="0.00 0.00 1728.00 484.96" xmlns="http://www.w3.org/2000/svg" xmlns:xlink="http://www.w3.org/1999/xlink">
<g id="graph0" class="graph" transform="scale(0.56 0.56) rotate(0) translate(4 854.5)">
<title>%3</title>
<polygon fill="white" stroke="transparent" points="-4,4 -4,-854.5 3055,-854.5 3055,4 -4,4"/>
<!-- CardType -->
<g id="node1" class="node">
<title>CardType</title>
<polygon fill="none" stroke="black" points="10.5,-275 10.5,-328 311.5,-328 311.5,-275 10.5,-275"/>
<text text-anchor="middle" x="53.5" y="-297.8" font-family="Times,serif" font-size="14.00">CardType</text>
<polyline fill="none" stroke="black" points="96.5,-275 96.5,-328 "/>
<text text-anchor="start" x="104.5" y="-312.8" font-family="Times,serif" font-size="14.00">+ getDisplayName()</text>
<text text-anchor="start" x="104.5" y="-297.8" font-family="Times,serif" font-size="14.00">+ fromCardNumber(String)</text>
<text text-anchor="start" x="104.5" y="-282.8" font-family="Times,serif" font-size="14.00">+ getCardTypes()</text>
</g>
<!-- LogLevel -->
<g id="node2" class="node">
<title>LogLevel</title>
<polygon fill="none" stroke="black" points="2449,-717.5 2449,-785.5 2621,-785.5 2621,-717.5 2449,-717.5"/>
<text text-anchor="middle" x="2489.5" y="-747.8" font-family="Times,serif" font-size="14.00">LogLevel</text>
<polyline fill="none" stroke="black" points="2530,-717.5 2530,-785.5 "/>
<text text-anchor="start" x="2538" y="-770.3" font-family="Times,serif" font-size="14.00">INFO</text>
<text text-anchor="start" x="2538" y="-755.3" font-family="Times,serif" font-size="14.00">WARNING</text>
<text text-anchor="start" x="2538" y="-740.3" font-family="Times,serif" font-size="14.00">ERROR</text>
<text text-anchor="start" x="2538" y="-725.3" font-family="Times,serif" font-size="14.00">SUCCESS</text>
</g>
<!-- Strategy -->
<g id="node3" class="node">
<title>Strategy</title>
<polygon fill="none" stroke="black" points="2838,-614.5 2838,-650.5 3051,-650.5 3051,-614.5 2838,-614.5"/>
<text text-anchor="middle" x="2877.5" y="-628.8" font-family="Times,serif" font-size="14.00">Strategy</text>
<polyline fill="none" stroke="black" points="2917,-614.5 2917,-650.5 "/>
<text text-anchor="start" x="2925" y="-628.8" font-family="Times,serif" font-size="14.00">+ pay(): boolean</text>
</g>
<!-- Command -->
<g id="node4" class="node">
<title>Command</title>
<polygon fill="none" stroke="black" points="1944,-39.5 1944,-75.5 2171,-75.5 2171,-39.5 1944,-39.5"/>
<text text-anchor="middle" x="1988.5" y="-53.8" font-family="Times,serif" font-size="14.00">Command</text>
<polyline fill="none" stroke="black" points="2033,-39.5 2033,-75.5 "/>
<text text-anchor="start" x="2041" y="-53.8" font-family="Times,serif" font-size="14.00">+ execute(): void</text>
</g>
<!-- Observer -->
<g id="node5" class="node">
<title>Observer</title>
<polygon fill="none" stroke="black" points="2368,-805.5 2368,-841.5 2702,-841.5 2702,-805.5 2368,-805.5"/>
<text text-anchor="middle" x="2409.5" y="-819.8" font-family="Times,serif" font-size="14.00">Observer</text>
<polyline fill="none" stroke="black" points="2451,-805.5 2451,-841.5 "/>
<text text-anchor="start" x="2459" y="-819.8" font-family="Times,serif" font-size="14.00">+ update(String, LogLevel): void</text>
</g>
<!-- LogSubject -->
<g id="node6" class="node">
<title>LogSubject</title>
<polygon fill="none" stroke="black" points="1851,-797 1851,-850 2264,-850 2264,-797 1851,-797"/>
<text text-anchor="middle" x="1899.5" y="-819.8" font-family="Times,serif" font-size="14.00">LogSubject</text>
<polyline fill="none" stroke="black" points="1948,-797 1948,-850 "/>
<text text-anchor="start" x="1956" y="-834.8" font-family="Times,serif" font-size="14.00">+ attach(Observer): void</text>
<text text-anchor="start" x="1956" y="-819.8" font-family="Times,serif" font-size="14.00">+ detach(Observer): void</text>
<text text-anchor="start" x="1956" y="-804.8" font-family="Times,serif" font-size="14.00">+ notifyObservers(String, LogLevel): void</text>
</g>
<!-- LogSubject&#45;&gt;Observer -->
<g id="edge9" class="edge">
<title>LogSubject&#45;&gt;Observer</title>
<path fill="none" stroke="black" d="M2264.3,-823.5C2295.42,-823.5 2327.28,-823.5 2357.7,-823.5"/>
<polygon fill="black" stroke="black" points="2357.96,-827 2367.96,-823.5 2357.96,-820 2357.96,-827"/>
<text text-anchor="middle" x="2308.5" y="-827.3" font-family="Times,serif" font-size="14.00">notifies</text>
</g>
<!-- CreditCardPayment -->
<g id="node7" class="node">
<title>CreditCardPayment</title>
<polygon fill="none" stroke="black" points="2371,-646.5 2371,-684.5 2699,-684.5 2699,-646.5 2371,-646.5"/>
<text text-anchor="middle" x="2450" y="-661.8" font-family="Times,serif" font-size="14.00">CreditCardPayment</text>
<polyline fill="none" stroke="black" points="2529,-646.5 2529,-684.5 "/>
<text text-anchor="start" x="2537" y="-669.3" font-family="Times,serif" font-size="14.00">&#45; cardNumber: String</text>
<text text-anchor="start" x="2537" y="-654.3" font-family="Times,serif" font-size="14.00">+ pay(): boolean</text>
</g>
<!-- CreditCardPayment&#45;&gt;Strategy -->
<g id="edge2" class="edge">
<title>CreditCardPayment&#45;&gt;Strategy</title>
<path fill="none" stroke="black" stroke-dasharray="5,2" d="M2699.1,-652.29C2742.2,-648.8 2787.83,-645.11 2827.84,-641.87"/>
<polygon fill="black" stroke="black" points="2828.2,-645.35 2837.89,-641.05 2827.64,-638.37 2828.2,-645.35"/>
<text text-anchor="middle" x="2777.5" y="-652.3" font-family="Times,serif" font-size="14.00">implements</text>
</g>
<!-- PaymentContext -->
<g id="node8" class="node">
<title>PaymentContext</title>
<polygon fill="none" stroke="black" points="2353,-574 2353,-627 2717,-627 2717,-574 2353,-574"/>
<text text-anchor="middle" x="2420.5" y="-596.8" font-family="Times,serif" font-size="14.00">PaymentContext</text>
<polyline fill="none" stroke="black" points="2488,-574 2488,-627 "/>
<text text-anchor="start" x="2496" y="-611.8" font-family="Times,serif" font-size="14.00">&#45; strategy: Strategy</text>
<text text-anchor="start" x="2496" y="-596.8" font-family="Times,serif" font-size="14.00">+ setStrategy(Strategy): void</text>
<text text-anchor="start" x="2496" y="-581.8" font-family="Times,serif" font-size="14.00">+ pay(): boolean</text>
</g>
<!-- PaymentContext&#45;&gt;Strategy -->
<g id="edge1" class="edge">
<title>PaymentContext&#45;&gt;Strategy</title>
<path fill="none" stroke="black" stroke-dasharray="5,2" d="M2717.08,-613.48C2751.27,-616.05 2786.74,-618.79 2820,-621.5 2822.53,-621.71 2825.1,-621.92 2827.68,-622.13"/>
<polygon fill="black" stroke="black" points="2827.48,-625.63 2837.74,-622.97 2828.06,-618.65 2827.48,-625.63"/>
<text text-anchor="middle" x="2777.5" y="-625.3" font-family="Times,serif" font-size="14.00">uses</text>
</g>
<!-- PaymentForm -->
<g id="node9" class="node">
<title>PaymentForm</title>
<polygon fill="none" stroke="black" points="1908.5,-621.5 1908.5,-657.5 2206.5,-657.5 2206.5,-621.5 1908.5,-621.5"/>
<text text-anchor="middle" x="1966.5" y="-635.8" font-family="Times,serif" font-size="14.00">PaymentForm</text>
<polyline fill="none" stroke="black" points="2024.5,-621.5 2024.5,-657.5 "/>
<text text-anchor="start" x="2032.5" y="-635.8" font-family="Times,serif" font-size="14.00">+ PaymentForm(): void</text>
</g>
<!-- PaymentForm&#45;&gt;CreditCardPayment -->
<g id="edge4" class="edge">
<title>PaymentForm&#45;&gt;CreditCardPayment</title>
<path fill="none" stroke="black" stroke-dasharray="1,5" d="M2206.67,-647.6C2255.48,-650.27 2310.18,-653.26 2360.69,-656.02"/>
<polygon fill="black" stroke="black" points="2360.55,-659.52 2370.73,-656.57 2360.94,-652.53 2360.55,-659.52"/>
<text text-anchor="middle" x="2308.5" y="-657.3" font-family="Times,serif" font-size="14.00">uses</text>
</g>
<!-- PaymentForm&#45;&gt;PaymentContext -->
<g id="edge3" class="edge">
<title>PaymentForm&#45;&gt;PaymentContext</title>
<path fill="none" stroke="black" stroke-dasharray="1,5" d="M2206.67,-627.35C2249.75,-623.81 2297.42,-619.9 2342.75,-616.19"/>
<polygon fill="black" stroke="black" points="2343.31,-619.65 2352.99,-615.35 2342.73,-612.68 2343.31,-619.65"/>
<text text-anchor="middle" x="2308.5" y="-624.3" font-family="Times,serif" font-size="14.00">uses</text>
</g>
<!-- MakeReservationCommand -->
<g id="node10" class="node">
<title>MakeReservationCommand</title>
<polygon fill="none" stroke="black" points="1334.5,-130.5 1334.5,-166.5 1685.5,-166.5 1685.5,-130.5 1334.5,-130.5"/>
<text text-anchor="middle" x="1441" y="-144.8" font-family="Times,serif" font-size="14.00">MakeReservationCommand</text>
<polyline fill="none" stroke="black" points="1547.5,-130.5 1547.5,-166.5 "/>
<text text-anchor="start" x="1555.5" y="-144.8" font-family="Times,serif" font-size="14.00">+ execute(): void</text>
</g>
<!-- MakeReservationCommand&#45;&gt;Command -->
<g id="edge5" class="edge">
<title>MakeReservationCommand&#45;&gt;Command</title>
<path fill="none" stroke="black" stroke-dasharray="5,2" d="M1656.79,-130.46C1681.72,-124.97 1706.98,-117.81 1730,-108.5 1738.91,-104.9 1738.99,-99.86 1748,-96.5 1781.45,-84.03 1862.66,-74.04 1933.37,-67.29"/>
<polygon fill="black" stroke="black" points="1934.09,-70.74 1943.72,-66.32 1933.44,-63.77 1934.09,-70.74"/>
<text text-anchor="middle" x="1790.5" y="-100.3" font-family="Times,serif" font-size="14.00">implements</text>
</g>
<!-- ConnectDB -->
<g id="node15" class="node">
<title>ConnectDB</title>
<polygon fill="none" stroke="black" points="1870.5,-349 1870.5,-402 2244.5,-402 2244.5,-349 1870.5,-349"/>
<text text-anchor="middle" x="1919" y="-371.8" font-family="Times,serif" font-size="14.00">ConnectDB</text>
<polyline fill="none" stroke="black" points="1967.5,-349 1967.5,-402 "/>
<text text-anchor="start" x="1975.5" y="-386.8" font-family="Times,serif" font-size="14.00">+ connect(): Connection</text>
<text text-anchor="start" x="1975.5" y="-371.8" font-family="Times,serif" font-size="14.00">+ createTables(): void</text>
<text text-anchor="start" x="1975.5" y="-356.8" font-family="Times,serif" font-size="14.00">+ insertUser(...), checkUser(...), etc.</text>
</g>
<!-- MakeReservationCommand&#45;&gt;ConnectDB -->
<g id="edge13" class="edge">
<title>MakeReservationCommand&#45;&gt;ConnectDB</title>
<path fill="none" stroke="black" stroke-dasharray="1,5" d="M1685.84,-151.53C1746.37,-154.7 1805.83,-160.82 1833,-172.5 1918.64,-209.3 1993.14,-292.93 2030.66,-340.57"/>
<polygon fill="black" stroke="black" points="2028.11,-342.99 2037.01,-348.74 2033.64,-338.7 2028.11,-342.99"/>
<text text-anchor="middle" x="1790.5" y="-176.3" font-family="Times,serif" font-size="14.00">uses</text>
</g>
<!-- CancelReservationCommand -->
<g id="node11" class="node">
<title>CancelReservationCommand</title>
<polygon fill="none" stroke="black" points="1330,-63.5 1330,-99.5 1690,-99.5 1690,-63.5 1330,-63.5"/>
<text text-anchor="middle" x="1441" y="-77.8" font-family="Times,serif" font-size="14.00">CancelReservationCommand</text>
<polyline fill="none" stroke="black" points="1552,-63.5 1552,-99.5 "/>
<text text-anchor="start" x="1560" y="-77.8" font-family="Times,serif" font-size="14.00">+ execute(): void</text>
</g>
<!-- CancelReservationCommand&#45;&gt;Command -->
<g id="edge6" class="edge">
<title>CancelReservationCommand&#45;&gt;Command</title>
<path fill="none" stroke="black" stroke-dasharray="5,2" d="M1675.96,-63.49C1700.1,-61.44 1724.67,-59.67 1748,-58.5 1809.19,-55.44 1877.28,-54.91 1933.9,-55.27"/>
<polygon fill="black" stroke="black" points="1933.95,-58.77 1943.97,-55.34 1934,-51.77 1933.95,-58.77"/>
<text text-anchor="middle" x="1790.5" y="-62.3" font-family="Times,serif" font-size="14.00">implements</text>
</g>
<!-- CancelReservationCommand&#45;&gt;ConnectDB -->
<g id="edge14" class="edge">
<title>CancelReservationCommand&#45;&gt;ConnectDB</title>
<path fill="none" stroke="black" stroke-dasharray="1,5" d="M1669.45,-99.54C1735.8,-109.03 1804.16,-121.95 1833,-137.5 1924.21,-186.68 1999.13,-287 2034.51,-340.33"/>
<polygon fill="black" stroke="black" points="2031.64,-342.34 2040.05,-348.79 2037.5,-338.5 2031.64,-342.34"/>
<text text-anchor="middle" x="1790.5" y="-141.3" font-family="Times,serif" font-size="14.00">uses</text>
</g>
<!-- ReservationInvoker -->
<g id="node12" class="node">
<title>ReservationInvoker</title>
<polygon fill="none" stroke="black" points="1308,-0.5 1308,-38.5 1712,-38.5 1712,-0.5 1308,-0.5"/>
<text text-anchor="middle" x="1386" y="-15.8" font-family="Times,serif" font-size="14.00">ReservationInvoker</text>
<polyline fill="none" stroke="black" points="1464,-0.5 1464,-38.5 "/>
<text text-anchor="start" x="1472" y="-23.3" font-family="Times,serif" font-size="14.00">+ setCommand(Command): void</text>
<text text-anchor="start" x="1472" y="-8.3" font-family="Times,serif" font-size="14.00">+ run(): void</text>
</g>
<!-- ReservationInvoker&#45;&gt;Command -->
<g id="edge7" class="edge">
<title>ReservationInvoker&#45;&gt;Command</title>
<path fill="none" stroke="black" stroke-dasharray="5,2" d="M1712.03,-29.7C1752.12,-32.03 1793.91,-34.66 1833,-37.5 1865.66,-39.87 1900.97,-42.84 1933.66,-45.76"/>
<polygon fill="black" stroke="black" points="1933.45,-49.26 1943.72,-46.67 1934.07,-42.29 1933.45,-49.26"/>
<text text-anchor="middle" x="1790.5" y="-41.3" font-family="Times,serif" font-size="14.00">uses</text>
</g>
<!-- LogRecord -->
<g id="node13" class="node">
<title>LogRecord</title>
<polygon fill="none" stroke="black" points="1902,-725 1902,-778 2213,-778 2213,-725 1902,-725"/>
<text text-anchor="middle" x="1948.5" y="-747.8" font-family="Times,serif" font-size="14.00">LogRecord</text>
<polyline fill="none" stroke="black" points="1995,-725 1995,-778 "/>
<text text-anchor="start" x="2003" y="-762.8" font-family="Times,serif" font-size="14.00">&#45; message: String</text>
<text text-anchor="start" x="2003" y="-747.8" font-family="Times,serif" font-size="14.00">&#45; level: LogLevel</text>
<text text-anchor="start" x="2003" y="-732.8" font-family="Times,serif" font-size="14.00">&#45; timestamp: LocalDateTime</text>
</g>
<!-- LogRecord&#45;&gt;LogLevel -->
<g id="edge11" class="edge">
<title>LogRecord&#45;&gt;LogLevel</title>
<path fill="none" stroke="black" d="M2213.21,-751.5C2287.45,-751.5 2374.04,-751.5 2438.54,-751.5"/>
<polygon fill="black" stroke="black" points="2438.7,-755 2448.7,-751.5 2438.7,-748 2438.7,-755"/>
<text text-anchor="middle" x="2308.5" y="-755.3" font-family="Times,serif" font-size="14.00">uses</text>
</g>
<!-- LogService -->
<g id="node14" class="node">
<title>LogService</title>
<polygon fill="none" stroke="black" points="1350.5,-729.5 1350.5,-797.5 1669.5,-797.5 1669.5,-729.5 1350.5,-729.5"/>
<text text-anchor="middle" x="1398.5" y="-759.8" font-family="Times,serif" font-size="14.00">LogService</text>
<polyline fill="none" stroke="black" points="1446.5,-729.5 1446.5,-797.5 "/>
<text text-anchor="start" x="1454.5" y="-782.3" font-family="Times,serif" font-size="14.00">+ getInstance(): LogService</text>
<text text-anchor="start" x="1454.5" y="-767.3" font-family="Times,serif" font-size="14.00">+ log(String, LogLevel): void</text>
<text text-anchor="start" x="1454.5" y="-752.3" font-family="Times,serif" font-size="14.00">+ getLogs(): List</text>
<text text-anchor="start" x="1454.5" y="-737.3" font-family="Times,serif" font-size="14.00">+ clearLogs(): void</text>
</g>
<!-- LogService&#45;&gt;LogSubject -->
<g id="edge8" class="edge">
<title>LogService&#45;&gt;LogSubject</title>
<path fill="none" stroke="black" stroke-dasharray="5,2" d="M1669.51,-780.94C1722.93,-786.81 1783.48,-793.47 1840.56,-799.75"/>
<polygon fill="black" stroke="black" points="1840.48,-803.26 1850.8,-800.87 1841.24,-796.3 1840.48,-803.26"/>
<text text-anchor="middle" x="1790.5" y="-802.3" font-family="Times,serif" font-size="14.00">implements</text>
</g>
<!-- LogService&#45;&gt;LogRecord -->
<g id="edge10" class="edge">
<title>LogService&#45;&gt;LogRecord</title>
<path fill="none" stroke="black" d="M1669.51,-760.01C1739.22,-758.48 1821.08,-756.68 1891.52,-755.13"/>
<polygon fill="black" stroke="black" points="1891.9,-758.62 1901.82,-754.9 1891.75,-751.62 1891.9,-758.62"/>
<text text-anchor="middle" x="1790.5" y="-761.3" font-family="Times,serif" font-size="14.00">aggregates</text>
</g>
<!-- ConnectDBTest -->
<g id="node16" class="node">
<title>ConnectDBTest</title>
<polygon fill="none" stroke="black" points="1387.5,-357.5 1387.5,-393.5 1632.5,-393.5 1632.5,-357.5 1387.5,-357.5"/>
<text text-anchor="middle" x="1451" y="-371.8" font-family="Times,serif" font-size="14.00">ConnectDBTest</text>
<polyline fill="none" stroke="black" points="1514.5,-357.5 1514.5,-393.5 "/>
<text text-anchor="start" x="1522.5" y="-371.8" font-family="Times,serif" font-size="14.00">+ main(): void</text>
</g>
<!-- ConnectDBTest&#45;&gt;ConnectDB -->
<g id="edge12" class="edge">
<title>ConnectDBTest&#45;&gt;ConnectDB</title>
<path fill="none" stroke="black" stroke-dasharray="1,5" d="M1632.74,-375.5C1699.61,-375.5 1784.15,-375.5 1860.1,-375.5"/>
<polygon fill="black" stroke="black" points="1860.28,-379 1870.28,-375.5 1860.28,-372 1860.28,-379"/>
<text text-anchor="middle" x="1790.5" y="-379.3" font-family="Times,serif" font-size="14.00">tests</text>
</g>
<!-- ChoosingScreen -->
<g id="node17" class="node">
<title>ChoosingScreen</title>
<polygon fill="none" stroke="black" points="412,-473.5 412,-509.5 742,-509.5 742,-473.5 412,-473.5"/>
<text text-anchor="middle" x="478" y="-487.8" font-family="Times,serif" font-size="14.00">ChoosingScreen</text>
<polyline fill="none" stroke="black" points="544,-473.5 544,-509.5 "/>
<text text-anchor="start" x="552" y="-487.8" font-family="Times,serif" font-size="14.00">+ ChoosingScreen(): void</text>
</g>
<!-- ChoosingScreen&#45;&gt;ConnectDB -->
<g id="edge15" class="edge">
<title>ChoosingScreen&#45;&gt;ConnectDB</title>
<path fill="none" stroke="black" stroke-dasharray="1,5" d="M617.25,-473.37C651.44,-456.86 701.7,-430.79 742,-402.5 750.76,-396.35 750.41,-391.25 760,-386.5 793.28,-370.03 805.14,-375.02 842,-370.5 1233.86,-322.45 1335.56,-330.62 1730,-347.5 1772.19,-349.31 1817.35,-352.42 1860.23,-355.93"/>
<polygon fill="black" stroke="black" points="1859.95,-359.42 1870.2,-356.75 1860.53,-352.44 1859.95,-359.42"/>
<text text-anchor="middle" x="1240" y="-341.3" font-family="Times,serif" font-size="14.00">uses</text>
</g>
<!-- SignIn -->
<g id="node18" class="node">
<title>SignIn</title>
<polygon fill="none" stroke="black" points="920,-380.5 920,-416.5 1112,-416.5 1112,-380.5 920,-380.5"/>
<text text-anchor="middle" x="951.5" y="-394.8" font-family="Times,serif" font-size="14.00">SignIn</text>
<polyline fill="none" stroke="black" points="983,-380.5 983,-416.5 "/>
<text text-anchor="start" x="991" y="-394.8" font-family="Times,serif" font-size="14.00">+ SignIn(): void</text>
</g>
<!-- ChoosingScreen&#45;&gt;SignIn -->
<g id="edge41" class="edge">
<title>ChoosingScreen&#45;&gt;SignIn</title>
<path fill="none" stroke="black" stroke-dasharray="5,2" d="M662.78,-473.46C736.53,-457.76 843.32,-435.04 919.95,-418.73"/>
<polygon fill="black" stroke="black" points="921.04,-422.08 930.09,-416.57 919.58,-415.23 921.04,-422.08"/>
<text text-anchor="middle" x="792" y="-455.3" font-family="Times,serif" font-size="14.00">logout</text>
</g>
<!-- BusAdminPanel -->
<g id="node21" class="node">
<title>BusAdminPanel</title>
<polygon fill="none" stroke="black" points="0,-471.5 0,-507.5 322,-507.5 322,-471.5 0,-471.5"/>
<text text-anchor="middle" x="64" y="-485.8" font-family="Times,serif" font-size="14.00">BusAdminPanel</text>
<polyline fill="none" stroke="black" points="128,-471.5 128,-507.5 "/>
<text text-anchor="start" x="136" y="-485.8" font-family="Times,serif" font-size="14.00">+ BusAdminPanel(): void</text>
</g>
<!-- ChoosingScreen&#45;&gt;BusAdminPanel -->
<g id="edge31" class="edge">
<title>ChoosingScreen&#45;&gt;BusAdminPanel</title>
<path fill="none" stroke="black" stroke-dasharray="1,5" d="M411.92,-490.71C385.69,-490.58 358.49,-490.45 332.12,-490.32"/>
<polygon fill="black" stroke="black" points="332.08,-486.82 322.06,-490.27 332.05,-493.82 332.08,-486.82"/>
<text text-anchor="middle" x="367" y="-495.3" font-family="Times,serif" font-size="14.00">opens</text>
</g>
<!-- PlaneAdminPanel -->
<g id="node22" class="node">
<title>PlaneAdminPanel</title>
<polygon fill="none" stroke="black" points="842,-669.5 842,-705.5 1190,-705.5 1190,-669.5 842,-669.5"/>
<text text-anchor="middle" x="912.5" y="-683.8" font-family="Times,serif" font-size="14.00">PlaneAdminPanel</text>
<polyline fill="none" stroke="black" points="983,-669.5 983,-705.5 "/>
<text text-anchor="start" x="991" y="-683.8" font-family="Times,serif" font-size="14.00">+ PlaneAdminPanel(): void</text>
</g>
<!-- ChoosingScreen&#45;&gt;PlaneAdminPanel -->
<g id="edge32" class="edge">
<title>ChoosingScreen&#45;&gt;PlaneAdminPanel</title>
<path fill="none" stroke="black" stroke-dasharray="1,5" d="M605.84,-509.69C640.83,-532.05 703.21,-570.25 760,-596.5 820.93,-624.67 893.22,-649.72 945.25,-666.38"/>
<polygon fill="black" stroke="black" points="944.46,-669.8 955.05,-669.49 946.58,-663.13 944.46,-669.8"/>
<text text-anchor="middle" x="792" y="-626.3" font-family="Times,serif" font-size="14.00">opens</text>
</g>
<!-- BusUserPanel -->
<g id="node23" class="node">
<title>BusUserPanel</title>
<polygon fill="none" stroke="black" points="866,-570.5 866,-606.5 1166,-606.5 1166,-570.5 866,-570.5"/>
<text text-anchor="middle" x="924.5" y="-584.8" font-family="Times,serif" font-size="14.00">BusUserPanel</text>
<polyline fill="none" stroke="black" points="983,-570.5 983,-606.5 "/>
<text text-anchor="start" x="991" y="-584.8" font-family="Times,serif" font-size="14.00">+ BusUserPanel(): void</text>
</g>
<!-- ChoosingScreen&#45;&gt;BusUserPanel -->
<g id="edge29" class="edge">
<title>ChoosingScreen&#45;&gt;BusUserPanel</title>
<path fill="none" stroke="black" stroke-dasharray="1,5" d="M659.17,-509.52C734.33,-526.2 845.93,-550.97 924.06,-568.31"/>
<polygon fill="black" stroke="black" points="923.37,-571.75 933.89,-570.5 924.89,-564.91 923.37,-571.75"/>
<text text-anchor="middle" x="792" y="-550.3" font-family="Times,serif" font-size="14.00">opens</text>
</g>
<!-- PlaneUserPanel -->
<g id="node24" class="node">
<title>PlaneUserPanel</title>
<polygon fill="none" stroke="black" points="853,-482.5 853,-518.5 1179,-518.5 1179,-482.5 853,-482.5"/>
<text text-anchor="middle" x="918" y="-496.8" font-family="Times,serif" font-size="14.00">PlaneUserPanel</text>
<polyline fill="none" stroke="black" points="983,-482.5 983,-518.5 "/>
<text text-anchor="start" x="991" y="-496.8" font-family="Times,serif" font-size="14.00">+ PlaneUserPanel(): void</text>
</g>
<!-- ChoosingScreen&#45;&gt;PlaneUserPanel -->
<g id="edge30" class="edge">
<title>ChoosingScreen&#45;&gt;PlaneUserPanel</title>
<path fill="none" stroke="black" stroke-dasharray="1,5" d="M742.28,-494.88C775.07,-495.56 809.61,-496.27 842.67,-496.95"/>
<polygon fill="black" stroke="black" points="842.81,-500.45 852.88,-497.16 842.95,-493.46 842.81,-500.45"/>
<text text-anchor="middle" x="792" y="-501.3" font-family="Times,serif" font-size="14.00">opens</text>
</g>
<!-- SignIn&#45;&gt;ConnectDB -->
<g id="edge16" class="edge">
<title>SignIn&#45;&gt;ConnectDB</title>
<path fill="none" stroke="black" stroke-dasharray="1,5" d="M1092.67,-416.53C1147.17,-428.55 1222.67,-443.26 1290,-449.5 1484.72,-467.53 1535.66,-471.25 1730,-449.5 1806.51,-440.94 1891.24,-421.43 1955.22,-404.59"/>
<polygon fill="black" stroke="black" points="1956.14,-407.97 1964.9,-402.02 1954.34,-401.2 1956.14,-407.97"/>
<text text-anchor="middle" x="1510" y="-468.3" font-family="Times,serif" font-size="14.00">uses</text>
</g>
<!-- SignIn&#45;&gt;ChoosingScreen -->
<g id="edge26" class="edge">
<title>SignIn&#45;&gt;ChoosingScreen</title>
<path fill="none" stroke="black" stroke-dasharray="1,5" d="M919.9,-388.56C871.41,-386.08 811.87,-387.03 760,-399.5 704.94,-412.74 647.64,-445.35 612.39,-467.95"/>
<polygon fill="black" stroke="black" points="610.39,-465.08 603.91,-473.47 614.2,-470.95 610.39,-465.08"/>
<text text-anchor="middle" x="792" y="-403.3" font-family="Times,serif" font-size="14.00">creates</text>
</g>
<!-- SignUp -->
<g id="node19" class="node">
<title>SignUp</title>
<polygon fill="none" stroke="black" points="58,-347.5 58,-383.5 264,-383.5 264,-347.5 58,-347.5"/>
<text text-anchor="middle" x="93" y="-361.8" font-family="Times,serif" font-size="14.00">SignUp</text>
<polyline fill="none" stroke="black" points="128,-347.5 128,-383.5 "/>
<text text-anchor="start" x="136" y="-361.8" font-family="Times,serif" font-size="14.00">+ SignUp(): void</text>
</g>
<!-- SignUp&#45;&gt;ConnectDB -->
<g id="edge17" class="edge">
<title>SignUp&#45;&gt;ConnectDB</title>
<path fill="none" stroke="black" stroke-dasharray="1,5" d="M264.31,-357.68C284.23,-353.41 304.39,-347.02 322,-337.5 373.45,-309.7 361.49,-270.99 412,-241.5 476.79,-203.67 500.97,-201.5 576,-201.5 576,-201.5 576,-201.5 1511,-201.5 1655.05,-201.5 1696.82,-191.53 1833,-238.5 1902.17,-262.36 1972.62,-310.29 2015.45,-342.64"/>
<polygon fill="black" stroke="black" points="2013.57,-345.61 2023.64,-348.89 2017.82,-340.04 2013.57,-345.61"/>
<text text-anchor="middle" x="1016" y="-205.3" font-family="Times,serif" font-size="14.00">uses</text>
</g>
<!-- SignUp&#45;&gt;ChoosingScreen -->
<g id="edge27" class="edge">
<title>SignUp&#45;&gt;ChoosingScreen</title>
<path fill="none" stroke="black" stroke-dasharray="1,5" d="M221.32,-383.55C296.79,-406.52 426.92,-446.13 506.82,-470.45"/>
<polygon fill="black" stroke="black" points="506.21,-473.92 516.79,-473.48 508.25,-467.22 506.21,-473.92"/>
<text text-anchor="middle" x="367" y="-440.3" font-family="Times,serif" font-size="14.00">creates</text>
</g>
<!-- SignUp&#45;&gt;SignIn -->
<g id="edge28" class="edge">
<title>SignUp&#45;&gt;SignIn</title>
<path fill="none" stroke="black" stroke-dasharray="1,5" d="M264.11,-367.76C394.17,-370.86 625.87,-377.14 824,-386.5 851.78,-387.81 881.82,-389.55 909.67,-391.29"/>
<polygon fill="black" stroke="black" points="909.62,-394.8 919.82,-391.94 910.06,-387.81 909.62,-394.8"/>
<text text-anchor="middle" x="577" y="-387.3" font-family="Times,serif" font-size="14.00">creates</text>
</g>
<!-- demo -->
<g id="node20" class="node">
<title>demo</title>
<polygon fill="none" stroke="black" points="488,-289.5 488,-325.5 666,-325.5 666,-289.5 488,-289.5"/>
<text text-anchor="middle" x="516" y="-303.8" font-family="Times,serif" font-size="14.00">demo</text>
<polyline fill="none" stroke="black" points="544,-289.5 544,-325.5 "/>
<text text-anchor="start" x="552" y="-303.8" font-family="Times,serif" font-size="14.00">+ demo(): void</text>
</g>
<!-- demo&#45;&gt;ConnectDB -->
<g id="edge18" class="edge">
<title>demo&#45;&gt;ConnectDB</title>
<path fill="none" stroke="black" stroke-dasharray="1,5" d="M666.14,-299.48C871.88,-282.61 1399.27,-250.07 1833,-314.5 1878.12,-321.2 1927.12,-333.94 1967.72,-346.05"/>
<polygon fill="black" stroke="black" points="1966.73,-349.4 1977.31,-348.94 1968.75,-342.7 1966.73,-349.4"/>
<text text-anchor="middle" x="1240" y="-280.3" font-family="Times,serif" font-size="14.00">uses</text>
</g>
<!-- demo&#45;&gt;SignIn -->
<g id="edge25" class="edge">
<title>demo&#45;&gt;SignIn</title>
<path fill="none" stroke="black" stroke-dasharray="1,5" d="M666.08,-313.66C713.28,-318.02 772.22,-325.16 824,-336.5 870.11,-346.6 920.88,-363.36 958.47,-376.91"/>
<polygon fill="black" stroke="black" points="957.63,-380.33 968.22,-380.46 960.02,-373.75 957.63,-380.33"/>
<text text-anchor="middle" x="792" y="-340.3" font-family="Times,serif" font-size="14.00">creates</text>
</g>
<!-- BusAdminPanel&#45;&gt;LogService -->
<g id="edge42" class="edge">
<title>BusAdminPanel&#45;&gt;LogService</title>
<path fill="none" stroke="black" stroke-dasharray="1,5" d="M204.37,-507.61C309.84,-551.79 593.58,-665.15 842,-715.5 1001.92,-747.91 1045.24,-732.92 1208,-744.5 1250.88,-747.55 1297.22,-750.6 1340.38,-753.33"/>
<polygon fill="black" stroke="black" points="1340.21,-756.83 1350.41,-753.97 1340.65,-749.84 1340.21,-756.83"/>
<text text-anchor="middle" x="792" y="-714.3" font-family="Times,serif" font-size="14.00">monitors</text>
</g>
<!-- BusAdminPanel&#45;&gt;ConnectDB -->
<g id="edge19" class="edge">
<title>BusAdminPanel&#45;&gt;ConnectDB</title>
<path fill="none" stroke="black" stroke-dasharray="1,5" d="M199.27,-471.48C233.27,-454.02 283.89,-425.4 322,-392.5 359.99,-359.7 363.69,-345.5 394,-305.5 402.49,-294.3 399.72,-286.34 412,-279.5 539.94,-208.24 1585.05,-252.63 1730,-273.5 1819.64,-286.41 1918.34,-320.13 1983.5,-345.29"/>
<polygon fill="black" stroke="black" points="1982.28,-348.57 1992.87,-348.94 1984.82,-342.05 1982.28,-348.57"/>
<text text-anchor="middle" x="1016" y="-249.3" font-family="Times,serif" font-size="14.00">uses</text>
</g>
<!-- BusAdminPanel&#45;&gt;ChoosingScreen -->
<g id="edge39" class="edge">
<title>BusAdminPanel&#45;&gt;ChoosingScreen</title>
<path fill="none" stroke="black" stroke-dasharray="5,2" d="M322.05,-472.55C328.11,-472.15 334.11,-471.8 340,-471.5 368.19,-470.08 398.24,-470.86 427.12,-472.76"/>
<polygon fill="black" stroke="black" points="427.05,-476.26 437.28,-473.48 427.55,-469.28 427.05,-476.26"/>
<text text-anchor="middle" x="367" y="-475.3" font-family="Times,serif" font-size="14.00">returns</text>
</g>
<!-- PlaneAdminPanel&#45;&gt;LogService -->
<g id="edge43" class="edge">
<title>PlaneAdminPanel&#45;&gt;LogService</title>
<path fill="none" stroke="black" stroke-dasharray="1,5" d="M1133.6,-705.51C1195.35,-715.05 1272.31,-726.94 1340.44,-737.46"/>
<polygon fill="black" stroke="black" points="1340.01,-740.94 1350.43,-739.01 1341.08,-734.02 1340.01,-740.94"/>
<text text-anchor="middle" x="1240" y="-729.3" font-family="Times,serif" font-size="14.00">monitors</text>
</g>
<!-- PlaneAdminPanel&#45;&gt;ConnectDB -->
<g id="edge20" class="edge">
<title>PlaneAdminPanel&#45;&gt;ConnectDB</title>
<path fill="none" stroke="black" stroke-dasharray="1,5" d="M1190.33,-690.51C1414.84,-692.82 1783.44,-690.62 1833,-652.5 1848.78,-640.37 1840.34,-628.31 1851,-611.5 1901.05,-532.56 1976.64,-453.13 2020.84,-409.53"/>
<polygon fill="black" stroke="black" points="2023.5,-411.83 2028.19,-402.33 2018.6,-406.83 2023.5,-411.83"/>
<text text-anchor="middle" x="1510" y="-694.3" font-family="Times,serif" font-size="14.00">uses</text>
</g>
<!-- PlaneAdminPanel&#45;&gt;ChoosingScreen -->
<g id="edge40" class="edge">
<title>PlaneAdminPanel&#45;&gt;ChoosingScreen</title>
<path fill="none" stroke="black" stroke-dasharray="5,2" d="M845.61,-669.5C816.26,-662.88 786.63,-653.84 760,-641.5 694.65,-611.22 633.18,-551.74 601.11,-517.47"/>
<polygon fill="black" stroke="black" points="603.33,-514.72 593.98,-509.75 598.19,-519.47 603.33,-514.72"/>
<text text-anchor="middle" x="792" y="-666.3" font-family="Times,serif" font-size="14.00">returns</text>
</g>
<!-- BusUserPanel&#45;&gt;ConnectDB -->
<g id="edge21" class="edge">
<title>BusUserPanel&#45;&gt;ConnectDB</title>
<path fill="none" stroke="black" stroke-dasharray="1,5" d="M1166.19,-591.15C1368.69,-592.6 1718.45,-586.85 1833,-533.5 1904.02,-500.42 1976.27,-444.42 2018.7,-408.73"/>
<polygon fill="black" stroke="black" points="2021.16,-411.24 2026.52,-402.1 2016.63,-405.9 2021.16,-411.24"/>
<text text-anchor="middle" x="1510" y="-595.3" font-family="Times,serif" font-size="14.00">uses</text>
</g>
<!-- BusUserPanel&#45;&gt;ChoosingScreen -->
<g id="edge37" class="edge">
<title>BusUserPanel&#45;&gt;ChoosingScreen</title>
<path fill="none" stroke="black" stroke-dasharray="5,2" d="M865.8,-582.5C830.76,-579.04 793.8,-573.7 760,-565.5 711.47,-553.72 658.92,-531.21 622.82,-514.1"/>
<polygon fill="black" stroke="black" points="624.08,-510.82 613.55,-509.65 621.05,-517.13 624.08,-510.82"/>
<text text-anchor="middle" x="792" y="-581.3" font-family="Times,serif" font-size="14.00">returns</text>
</g>
<!-- BusSeatLayoutFrame -->
<g id="node25" class="node">
<title>BusSeatLayoutFrame</title>
<polygon fill="none" stroke="black" points="1306,-622.5 1306,-658.5 1714,-658.5 1714,-622.5 1306,-622.5"/>
<text text-anchor="middle" x="1391.5" y="-636.8" font-family="Times,serif" font-size="14.00">BusSeatLayoutFrame</text>
<polyline fill="none" stroke="black" points="1477,-622.5 1477,-658.5 "/>
<text text-anchor="start" x="1485" y="-636.8" font-family="Times,serif" font-size="14.00">+ BusSeatLayoutFrame(): void</text>
</g>
<!-- BusUserPanel&#45;&gt;BusSeatLayoutFrame -->
<g id="edge33" class="edge">
<title>BusUserPanel&#45;&gt;BusSeatLayoutFrame</title>
<path fill="none" stroke="black" stroke-dasharray="1,5" d="M1166.29,-604.28C1217.29,-609.67 1274.89,-615.76 1328.11,-621.38"/>
<polygon fill="black" stroke="black" points="1328.03,-624.89 1338.35,-622.46 1328.77,-617.93 1328.03,-624.89"/>
<text text-anchor="middle" x="1240" y="-618.3" font-family="Times,serif" font-size="14.00">opens</text>
</g>
<!-- PlaneUserPanel&#45;&gt;ConnectDB -->
<g id="edge22" class="edge">
<title>PlaneUserPanel&#45;&gt;ConnectDB</title>
<path fill="none" stroke="black" stroke-dasharray="1,5" d="M1074.39,-482.43C1129.18,-465.98 1214.37,-442.49 1290,-430.5 1483.53,-399.81 1534.54,-416.31 1730,-402.5 1775.8,-399.26 1787.24,-398.22 1833,-394.5 1841.91,-393.78 1851.01,-393.03 1860.21,-392.27"/>
<polygon fill="black" stroke="black" points="1860.55,-395.75 1870.22,-391.44 1859.97,-388.78 1860.55,-395.75"/>
<text text-anchor="middle" x="1510" y="-434.3" font-family="Times,serif" font-size="14.00">uses</text>
</g>
<!-- PlaneUserPanel&#45;&gt;ChoosingScreen -->
<g id="edge38" class="edge">
<title>PlaneUserPanel&#45;&gt;ChoosingScreen</title>
<path fill="none" stroke="black" stroke-dasharray="5,2" d="M889.61,-482.48C867.78,-479.99 845.26,-477.83 824,-476.5 795.61,-474.72 788.42,-475.33 760,-476.5 757.44,-476.61 754.85,-476.72 752.25,-476.84"/>
<polygon fill="black" stroke="black" points="751.97,-473.35 742.15,-477.35 752.32,-480.34 751.97,-473.35"/>
<text text-anchor="middle" x="792" y="-480.3" font-family="Times,serif" font-size="14.00">returns</text>
</g>
<!-- FlightSeatLayoutFrame -->
<g id="node26" class="node">
<title>FlightSeatLayoutFrame</title>
<polygon fill="none" stroke="black" points="1290,-515.5 1290,-551.5 1730,-551.5 1730,-515.5 1290,-515.5"/>
<text text-anchor="middle" x="1383.5" y="-529.8" font-family="Times,serif" font-size="14.00">FlightSeatLayoutFrame</text>
<polyline fill="none" stroke="black" points="1477,-515.5 1477,-551.5 "/>
<text text-anchor="start" x="1485" y="-529.8" font-family="Times,serif" font-size="14.00">+ FlightSeatLayoutFrame(): void</text>
</g>
<!-- PlaneUserPanel&#45;&gt;FlightSeatLayoutFrame -->
<g id="edge34" class="edge">
<title>PlaneUserPanel&#45;&gt;FlightSeatLayoutFrame</title>
<path fill="none" stroke="black" stroke-dasharray="1,5" d="M1179.12,-511.37C1211.36,-513.54 1245.78,-515.84 1279.77,-518.12"/>
<polygon fill="black" stroke="black" points="1279.61,-521.62 1289.82,-518.8 1280.08,-514.64 1279.61,-521.62"/>
<text text-anchor="middle" x="1240" y="-521.3" font-family="Times,serif" font-size="14.00">opens</text>
</g>
<!-- BusSeatLayoutFrame&#45;&gt;PaymentForm -->
<g id="edge35" class="edge">
<title>BusSeatLayoutFrame&#45;&gt;PaymentForm</title>
<path fill="none" stroke="black" stroke-dasharray="1,5" d="M1647.85,-658.5C1675.17,-662.83 1703.58,-667.86 1730,-673.5 1738.12,-675.23 1739.77,-677.38 1748,-678.5 1785.43,-683.6 1795.36,-681.76 1833,-678.5 1876.14,-674.76 1923.44,-667.05 1963.38,-659.45"/>
<polygon fill="black" stroke="black" points="1964.21,-662.86 1973.37,-657.53 1962.89,-655.98 1964.21,-662.86"/>
<text text-anchor="middle" x="1790.5" y="-685.3" font-family="Times,serif" font-size="14.00">uses</text>
</g>
<!-- BusSeatLayoutFrame&#45;&gt;ConnectDB -->
<g id="edge23" class="edge">
<title>BusSeatLayoutFrame&#45;&gt;ConnectDB</title>
<path fill="none" stroke="black" stroke-dasharray="1,5" d="M1714.11,-640.6C1754.94,-634.75 1796.49,-624.3 1833,-606.5 1924.71,-561.8 1999.42,-463.13 2034.63,-410.38"/>
<polygon fill="black" stroke="black" points="2037.57,-412.29 2040.14,-402.01 2031.72,-408.44 2037.57,-412.29"/>
<text text-anchor="middle" x="1790.5" y="-637.3" font-family="Times,serif" font-size="14.00">uses</text>
</g>
<!-- FlightSeatLayoutFrame&#45;&gt;PaymentForm -->
<g id="edge36" class="edge">
<title>FlightSeatLayoutFrame&#45;&gt;PaymentForm</title>
<path fill="none" stroke="black" stroke-dasharray="1,5" d="M1640.95,-551.54C1670.3,-556.04 1701.28,-561.13 1730,-566.5 1813.09,-582.03 1907.22,-603.49 1972.99,-619.13"/>
<polygon fill="black" stroke="black" points="1972.35,-622.57 1982.89,-621.49 1973.98,-615.76 1972.35,-622.57"/>
<text text-anchor="middle" x="1790.5" y="-591.3" font-family="Times,serif" font-size="14.00">uses</text>
</g>
<!-- FlightSeatLayoutFrame&#45;&gt;ConnectDB -->
<g id="edge24" class="edge">
<title>FlightSeatLayoutFrame&#45;&gt;ConnectDB</title>
<path fill="none" stroke="black" stroke-dasharray="1,5" d="M1730.29,-518.83C1765.11,-513.31 1800.38,-505.77 1833,-495.5 1897.78,-475.1 1965.62,-435.73 2009.33,-407.65"/>
<polygon fill="black" stroke="black" points="2011.25,-410.57 2017.74,-402.19 2007.44,-404.7 2011.25,-410.57"/>
<text text-anchor="middle" x="1790.5" y="-518.3" font-family="Times,serif" font-size="14.00">uses</text>
</g>
</g>
</svg>
